<?xml version="1.0" encoding="utf-8"?>
<!-- Generator: Adobe Illustrator 19.0.0, SVG Export Plug-In . SVG Version: 6.00 Build 0)  -->
<svg version="1.1" id="Layer_1" xmlns="http://www.w3.org/2000/svg" xmlns:xlink="http://www.w3.org/1999/xlink" x="0px" y="0px"
	 viewBox="0 0 200 200" style="enable-background:new 0 0 200 200;" xml:space="preserve">
<style type="text/css">
	.st0{fill:#FFFFFF;}
	.st1{fill:none;stroke:#FFFFFF;stroke-width:6;stroke-miterlimit:10;}
</style>
<g>
	<path class="st0" d="M59.3,37.6c1.1-1,2.3-2.3,3.9-2.2c28.1,0,56.1,0,84.2,0c3.8,1.4,3.6,7.7-0.7,7.9c-28,0-56.1,0.1-84.1,0
		C59.7,43.3,58.6,40.1,59.3,37.6z"/>
	<path class="st0" d="M59.3,56.8c1-1.3,2.1-2.9,4-2.5c26.4,0.1,52.8-0.2,79.2,0.1c1,1,1.7,2.1,2.3,3.4c-0.5,2-1.6,4.3-4,4.2
		c-25.8,0-51.6,0-77.4,0c-1.8,0.3-3-1.2-4-2.4C59.3,58.8,59.3,57.5,59.3,56.8z"/>
	<path class="st0" d="M51.2,75.4c0.9-1.2,1.9-2.3,3.2-3c19.5,0.1,39,0.1,58.5,0c3.5,1.2,3.7,6.8,0,7.9c-19.2,0.1-38.4,0-57.7,0.1
		c-2,0.2-3.1-1.7-4.1-3.1C51.1,76.6,51.1,76,51.2,75.4z"/>
	<path class="st0" d="M60.3,91.7c1.1-1.4,3-1.1,4.5-1.1c23.5,0.1,46.9-0.1,70.4,0.1c0.9,1,2.4,1.8,2.3,3.4c0.4,2.4-1.8,4.6-4.2,4.2
		c-23.6,0-47.2,0-70.8,0C59.4,98.3,57.9,93.6,60.3,91.7z"/>
	<path class="st0" d="M68.2,113.3c-0.3-2.2,1.6-4.6,4-4.3c12,0,24.1-0.1,36.1,0c2.1,0,3.8,2.1,3.5,4.2c-0.1,2-2.1,3.7-4.1,3.4
		c-12.4,0-24.8,0.1-37.1-0.1C69.5,115.6,68.5,114.6,68.2,113.3z"/>
	<path class="st0" d="M68,129.5c0-2.2,1.2-4,3.2-4.9c8.2,0.1,16.4,0,24.6,0c1.7-0.2,2.9,1.3,4,2.4c0.5,2.3-0.7,5-3.2,5.4
		c-8.4,0.2-16.9,0-25.3,0.1C69.9,131.9,68.9,130.7,68,129.5z"/>
	<path class="st0" d="M70.9,140.8c4.3-0.3,8.7-0.1,13.1-0.1c2.8-0.3,5,3.2,3.5,5.6c-0.6,1.3-2,2.2-3.5,2c-4.3,0-8.7,0.2-13-0.1
		C67.4,147.3,67.4,141.7,70.9,140.8z"/>
	<path class="st0" d="M68.2,159.6c0.4-1.4,0.9-2.7,1.6-4c2.8,0,5.6,0,8.5,0c1.9,2.2,2.2,5.8-0.2,7.8c-2.6,0.4-5.3,0-7.9,0.2
		C69.1,162.5,68.6,161,68.2,159.6z"/>
</g>
<circle class="st1" cx="100" cy="98" r="88"/>
</svg>
